<svg width="47" height="28" viewBox="0 0 47 28" fill="none" xmlns="http://www.w3.org/2000/svg">
<g clip-path="url(#clip0)">
<path fill-rule="evenodd" clip-rule="evenodd" d="M19.103 0.387275L46.6446 0C46.6717 0.453112 46.7066 0.77455 46.7104 1.12697C46.7492 6.76183 46.7685 12.3967 46.8227 18.0354C46.8499 20.8199 46.9389 23.6044 46.997 26.3889C46.997 26.7762 46.997 27.1635 46.997 27.6437C46.6911 27.6708 46.4199 27.7095 46.1488 27.7134L21.8452 27.9961C21.0705 27.9961 20.2611 27.9961 19.3741 27.9961V23.7361C17.8249 23.4999 16.6939 22.3303 15.1137 22.0243C15.013 23.1281 14.2539 23.2055 13.5025 23.2481C11.9998 23.3333 10.4931 23.3953 8.99036 23.4573C6.6239 23.558 4.25744 23.647 1.88711 23.7438C0.860737 23.7826 0.725179 23.6974 0.655463 22.6517C0.423078 19.8788 0.206185 17.1021 0.000910548 14.3292C-0.0261701 13.6571 -0.00286637 12.9839 0.0706262 12.3154C0.128723 11.6376 0.217804 11.5408 0.911088 11.5408C5.16891 11.5408 9.42931 11.5524 13.6923 11.5757C14.7574 11.5757 14.8542 11.688 15.1408 12.9427C15.9155 13.2022 17.6893 13.1983 19.0914 12.9156L19.103 0.387275ZM45.7305 0.991425C42.6785 0.95657 39.6614 0.929461 36.59 0.991425C36.6869 9.65864 36.7953 18.2019 36.8728 26.722H46.0907C45.9668 18.1632 45.8506 9.68188 45.7305 0.995297V0.991425ZM34.3553 21.3505H33.3483C31.8455 21.3234 30.3389 21.304 28.8361 21.2575C28.482 21.2206 28.1311 21.1572 27.7865 21.0678C27.7865 20.9787 27.7865 20.8896 27.7865 20.8006C27.9896 20.7156 28.2033 20.6583 28.4217 20.6302C29.3512 20.6302 30.2769 20.665 31.2064 20.6921C32.0701 20.6921 32.9338 20.7657 33.7975 20.7502C34.0808 20.7029 34.339 20.5591 34.5282 20.3431C34.7174 20.127 34.826 19.8522 34.8355 19.5651C34.8045 19.1391 34.5993 19.0385 33.8053 19.0268C32.0417 19.001 30.2821 18.9687 28.5262 18.93C28.2513 18.93 27.9763 18.8719 27.7206 18.8448C27.6509 18.3142 27.9414 18.3065 28.2513 18.3142L31.3226 18.3646C32.2212 18.3646 33.1159 18.4266 34.0105 18.3878C34.1479 18.3829 34.2824 18.3476 34.4045 18.2845C34.5266 18.2213 34.6331 18.1319 34.7164 18.0226C34.7998 17.9134 34.8579 17.787 34.8865 17.6526C34.9151 17.5182 34.9136 17.3791 34.882 17.2454C34.8799 17.1118 34.849 16.9802 34.7914 16.8596C34.7338 16.7391 34.651 16.6323 34.5484 16.5467C34.4458 16.4611 34.326 16.3985 34.1971 16.3634C34.0682 16.3282 33.9332 16.3213 33.8014 16.343C31.981 16.4127 30.1568 16.4631 28.3365 16.5057C28.1264 16.4837 27.9197 16.4369 27.7206 16.3663C27.9027 15.8241 28.2939 15.9093 28.6192 15.8976C30.091 15.855 31.5628 15.8318 33.0345 15.7776C33.4466 15.7486 33.855 15.6812 34.2546 15.5762C34.5954 15.4949 34.882 15.2393 34.8045 14.9024C34.7055 14.6126 34.5027 14.3698 34.2352 14.2207C33.9733 14.1023 33.6846 14.0555 33.3986 14.0852C31.6402 14.1317 29.8818 14.2014 28.1234 14.2595C27.6778 14.2975 27.2302 14.3066 26.7834 14.2866C26.4881 14.2247 26.2018 14.1258 25.9313 13.9923C26.0358 13.7405 26.1211 13.4772 26.2489 13.2177C26.3755 13.0332 26.5126 12.856 26.6594 12.6871C27.0119 12.1992 27.2481 11.6647 26.9383 11.0877C26.7717 10.7663 25.9545 10.8243 25.3309 11.169C24.626 11.5795 23.9444 12.0055 23.2395 12.3928C22.1279 13.0396 21.0047 13.6747 19.7033 13.8141C18.5879 13.9342 17.4686 13.9729 16.3492 14.0387C16.0084 14.0387 15.6676 14.0387 15.2377 14.0387C15.5707 16.4824 15.7063 18.7983 15.2803 21.0097C16.0549 21.397 16.7482 21.7223 17.4453 22.0243C18.099 22.3571 18.784 22.6243 19.4903 22.8221C20.339 22.985 21.2018 23.0628 22.0659 23.0545C25.5246 23.0932 28.9833 23.0971 32.4381 23.101C32.8218 23.113 33.2055 23.0779 33.5806 22.9964C34.4714 22.7873 34.6612 22.3845 34.3553 21.3505ZM0.996296 12.3115C0.608986 15.9054 1.21319 19.3328 1.55402 22.7679C2.60363 22.9228 13.2701 22.4232 14.0757 22.1986C15.0634 18.9842 14.6799 15.7776 14.1028 12.4819L0.996296 12.3115ZM35.8154 1.11923H31.0864C30.9043 2.94329 31.1173 12.4741 31.3652 13.2409H32.3839C32.9261 13.2409 33.4761 13.2061 34.0144 13.2409C35.4126 13.361 36.0478 14.5073 35.4475 15.7737C35.412 15.8647 35.3823 15.9579 35.3584 16.0526C35.7457 16.6761 35.9974 17.377 35.6644 18.0548C35.2771 18.7945 35.982 19.4916 35.6218 20.1887C35.5874 20.2792 35.5419 20.365 35.4862 20.4443C35.2112 20.7463 35.2925 21.0523 35.3816 21.4202C35.6605 22.582 35.1686 23.434 34.0067 23.7826C33.542 23.8967 33.0672 23.9642 32.5891 23.984C32.2018 24.0149 31.7719 23.984 31.3381 23.984V26.7994C32.7673 26.966 35.4823 26.8963 36.164 26.6871C36.346 25.2697 36.0207 1.8473 35.8154 1.11923ZM20.0403 12.8033C20.2602 12.7866 20.4773 12.7436 20.6871 12.6755C21.574 12.2379 22.4571 11.7848 23.3286 11.3201C24.0373 10.9328 24.7035 10.4797 25.4355 10.1776C26.1675 9.87552 26.9848 9.8213 27.5928 10.4564C28.2009 11.0916 28.0266 11.8777 27.7439 12.6252C27.7206 12.6833 27.678 12.7336 27.6548 12.7956L27.3914 13.4268L30.4124 13.1828C30.6138 12.052 30.4357 1.8473 30.1839 1.09599L20.0403 1.31286V12.8033ZM20.323 27.1325L30.6293 26.8924C30.6994 25.9565 30.6994 25.0167 30.6293 24.0808L20.3385 23.9297L20.323 27.1325Z" fill="black"/>
<path fill-rule="evenodd" clip-rule="evenodd" d="M45.7296 0.995309C45.8497 9.6664 45.9659 18.1632 46.0821 26.7336H36.8718C36.7944 18.2019 36.6859 9.65866 36.5891 1.00693C39.6605 0.933345 42.6776 0.960454 45.7296 0.995309Z" fill="#D8A475"/>
<path fill-rule="evenodd" clip-rule="evenodd" d="M34.3544 21.3505C34.6603 22.3845 34.4744 22.7873 33.5797 23.0003C33.2046 23.0818 32.8209 23.1169 32.4372 23.1048C28.9824 23.1048 25.5237 23.1048 22.065 23.0584C21.2009 23.0667 20.3381 22.9888 19.4894 22.826C18.7831 22.6282 18.0981 22.3609 17.4444 22.0282C16.7473 21.7261 16.0617 21.3853 15.2794 21.0136C15.7054 18.8061 15.5698 16.4902 15.2368 14.0426C15.6667 14.0426 16.0114 14.0426 16.3483 14.0426C17.4677 13.9768 18.587 13.938 19.7024 13.818C21.0038 13.6786 22.127 13.0434 23.2386 12.3967C23.928 12.0094 24.6096 11.5757 25.3107 11.1845C25.9342 10.8398 26.7515 10.7972 26.918 11.1032C27.2279 11.6802 26.9916 12.2147 26.6391 12.7026C26.4923 12.8715 26.3553 13.0487 26.2286 13.2332C26.1008 13.4733 26.0156 13.7367 25.911 14.0078C26.1815 14.1413 26.4678 14.2402 26.7631 14.3021C27.2099 14.3221 27.6575 14.313 28.1032 14.275C29.8616 14.2169 31.6199 14.1472 33.3783 14.1007C33.6643 14.071 33.953 14.1178 34.2149 14.2362C34.4824 14.3853 34.6852 14.6281 34.7843 14.9178C34.8617 15.2548 34.5751 15.5104 34.2343 15.5917C33.8348 15.6967 33.4263 15.7641 33.0143 15.7931C31.5425 15.8473 30.0707 15.8705 28.5989 15.9131C28.2736 15.9131 27.8824 15.8396 27.7004 16.3817C27.8994 16.4524 28.1061 16.4992 28.3162 16.5212C30.1366 16.4786 31.9608 16.4282 33.7811 16.3585C33.913 16.3368 34.0479 16.3437 34.1769 16.3789C34.3058 16.414 34.4256 16.4766 34.5281 16.5622C34.6307 16.6478 34.7136 16.7546 34.7711 16.8751C34.8287 16.9957 34.8596 17.1273 34.8617 17.2609C34.8933 17.3946 34.8948 17.5337 34.8662 17.6681C34.8376 17.8025 34.7795 17.9289 34.6962 18.0381C34.6128 18.1474 34.5063 18.2368 34.3842 18.3C34.2622 18.3631 34.1276 18.3984 33.9903 18.4033C33.0956 18.4421 32.2009 18.4033 31.3024 18.3801L28.231 18.3297C27.9211 18.3297 27.6307 18.3297 27.7004 18.8603C27.956 18.8874 28.231 18.9416 28.506 18.9455C30.2644 18.9842 32.024 19.0165 33.785 19.0423C34.5596 19.0423 34.7843 19.1546 34.8153 19.5806C34.8057 19.8677 34.6972 20.1425 34.5079 20.3586C34.3187 20.5746 34.0605 20.7184 33.7773 20.7657C32.9136 20.7657 32.0499 20.727 31.1862 20.7076C30.2566 20.6805 29.3309 20.6495 28.4014 20.6457C28.183 20.6738 27.9694 20.7311 27.7662 20.8161C27.7662 20.9051 27.7662 20.9942 27.7662 21.0833C28.1108 21.1727 28.4617 21.2361 28.8158 21.273C30.3186 21.3195 31.8252 21.3389 33.328 21.366L34.3544 21.3505Z" fill="#FFCC9C"/>
<path fill-rule="evenodd" clip-rule="evenodd" d="M0.995379 12.3115L14.1019 12.4703C14.679 15.766 15.0625 18.9726 14.0748 22.187C13.2692 22.4116 2.60271 22.9112 1.54923 22.7563C1.21227 19.3328 0.600324 15.9054 0.995379 12.3115Z" fill="#F88523"/>
<path fill-rule="evenodd" clip-rule="evenodd" d="M35.8145 1.11922C36.0159 1.84729 36.3451 25.2697 36.1631 26.7065C35.4814 26.9156 32.7664 26.9853 31.3372 26.8188V24.0111C31.771 24.0111 32.1816 24.0382 32.5882 24.0111C33.0663 23.9913 33.5412 23.9238 34.0058 23.8097C35.1677 23.4611 35.6596 22.6169 35.3807 21.4473C35.2917 21.06 35.2103 20.7734 35.4853 20.4714C35.541 20.3921 35.5865 20.3063 35.6209 20.2158C35.9811 19.5187 35.2955 18.8216 35.6635 18.0819C35.9966 17.4041 35.7564 16.7032 35.3575 16.0797C35.3814 15.985 35.4112 15.8918 35.4466 15.8008C36.0469 14.5344 35.4117 13.3881 34.0135 13.268C33.4752 13.2177 32.9252 13.268 32.383 13.268H31.3721C31.1242 12.4935 30.9112 2.97039 31.0932 1.14633L35.8145 1.11922Z" fill="#A8805B"/>
<path fill-rule="evenodd" clip-rule="evenodd" d="M20.0394 12.8033V1.31287L30.183 1.09599C30.4347 1.84731 30.5974 12.052 30.4115 13.1674L27.3905 13.4113L27.6539 12.7801C27.6771 12.7181 27.7197 12.6678 27.7429 12.6097C28.0257 11.8622 28.1922 11.0606 27.5919 10.4409C26.9916 9.8213 26.1666 9.85616 25.4346 10.1621C24.7026 10.4681 24.0364 10.9367 23.3276 11.3046C22.4562 11.7693 21.5731 12.2224 20.6862 12.66C20.4771 12.7334 20.2599 12.7815 20.0394 12.8033ZM21.8287 2.77677C21.4414 4.20969 21.6312 5.58839 21.5654 6.95159C21.5654 7.33887 21.821 7.49765 22.1928 7.5054C23.8853 7.52476 25.574 7.56736 27.2666 7.56736C27.9792 7.56736 28.0915 7.44731 28.1186 6.71148C28.1574 5.59613 28.1496 4.47691 28.1186 3.35768C28.1186 2.7574 27.9986 2.64509 27.344 2.65284C25.5624 2.67608 23.7382 2.73029 21.8287 2.77677Z" fill="#D8A475"/>
<path fill-rule="evenodd" clip-rule="evenodd" d="M20.3221 27.1325V23.9297L30.5975 24.0808C30.6676 25.0167 30.6676 25.9565 30.5975 26.8924L20.3221 27.1325Z" fill="#D8A475"/>
<path fill-rule="evenodd" clip-rule="evenodd" d="M21.8287 2.77676C23.7382 2.73029 25.5547 2.67607 27.3711 2.65283C28.0141 2.65283 28.1458 2.7574 28.1458 3.35767C28.1458 4.4769 28.169 5.59612 28.1458 6.71148C28.1187 7.4473 28.0063 7.56348 27.2937 7.56736C25.6011 7.56736 23.9125 7.52475 22.2199 7.50539C21.8326 7.50539 21.5731 7.35435 21.5925 6.95159C21.6312 5.58838 21.4608 4.20968 21.8287 2.77676ZM22.2664 6.87801C24.0132 6.87801 25.7173 7.1491 27.5028 6.87801C27.5648 5.63872 27.5725 4.4769 27.5028 3.39253H22.2664V6.87801Z" fill="black"/>
<path fill-rule="evenodd" clip-rule="evenodd" d="M22.2664 6.87801V3.39253H27.5222C27.5726 4.48465 27.5648 5.64647 27.5222 6.87801C25.7173 7.1491 24.0132 6.88188 22.2664 6.87801Z" fill="#D8B99E"/>
</g>
<defs>
<clipPath id="clip0">
<rect width="47" height="28" fill="white"/>
</clipPath>
</defs>
</svg>
