<svg width="83" height="83" viewBox="0 0 83 83" fill="none" xmlns="http://www.w3.org/2000/svg">
<g clip-path="url(#clip0)">
<path d="M34.8811 22.7569C34.8755 22.5687 34.6314 22.4171 34.3322 22.4171H16.1795C15.8762 22.4171 15.5541 22.5733 15.5541 22.7642V49.4234C15.5541 49.5658 15.6821 49.7025 15.8426 49.803C16.0031 49.9034 16.2393 49.9599 16.4657 49.9595L34.8171 49.9282C35.0455 49.9282 35.2688 49.8701 35.4285 49.7671C35.5882 49.6642 35.6782 49.5252 35.6739 49.3816L34.8811 22.7569Z" fill="#D7D9E0"/>
<g style="mix-blend-mode:overlay">
<path d="M24.4564 24.3065L18.5183 24.2936L18.5205 23.826L24.4519 23.8378L24.4564 24.3065Z" fill="white"/>
</g>
<g style="mix-blend-mode:overlay">
<path d="M24.4726 26.0286L18.5101 26.0115L18.5123 25.5402L24.4682 25.5561L24.4726 26.0286Z" fill="white"/>
</g>
<g style="mix-blend-mode:overlay">
<path d="M24.489 27.7648L18.5019 27.7435L18.5041 27.2682L24.4846 27.2884L24.489 27.7648Z" fill="white"/>
</g>
<g style="mix-blend-mode:overlay">
<path d="M24.5057 29.5156L18.4937 29.4899L18.496 29.0106L24.5012 29.0352L24.5057 29.5156Z" fill="white"/>
</g>
<g style="mix-blend-mode:overlay">
<path d="M24.5224 31.2809L18.4853 31.2508L18.4876 30.7676L24.5178 30.7965L24.5224 31.2809Z" fill="white"/>
</g>
<g style="mix-blend-mode:overlay">
<path d="M24.5561 34.8561L18.4684 34.8171L18.4707 34.3257L24.5514 34.3636L24.5561 34.8561Z" fill="white"/>
</g>
<g style="mix-blend-mode:overlay">
<path d="M24.6078 40.333L18.4425 40.2798L18.4448 39.7759L24.6031 39.8277L24.6078 40.333Z" fill="white"/>
</g>
<g style="mix-blend-mode:overlay">
<path d="M24.5392 33.061L18.4769 33.0264L18.4792 32.5392L24.5345 32.5726L24.5392 33.061Z" fill="white"/>
</g>
<g style="mix-blend-mode:overlay">
<path d="M24.5732 36.6664L18.4599 36.6226L18.4622 36.1272L24.5686 36.1696L24.5732 36.6664Z" fill="white"/>
</g>
<g style="mix-blend-mode:overlay">
<path d="M24.5906 38.492L18.4513 38.4435L18.4536 37.9438L24.5858 37.9911L24.5906 38.492Z" fill="white"/>
</g>
<g style="mix-blend-mode:overlay">
<path d="M24.6255 42.1898L18.4338 42.1318L18.4362 41.6235L24.6207 41.6802L24.6255 42.1898Z" fill="white"/>
</g>
<g style="mix-blend-mode:overlay">
<path d="M24.6431 44.0625L18.4248 43.9995L18.4274 43.4869L24.6382 43.5486L24.6431 44.0625Z" fill="white"/>
</g>
<g style="mix-blend-mode:overlay">
<path d="M24.6611 45.9514L18.416 45.8834L18.4185 45.3665L24.6561 45.4331L24.6611 45.9514Z" fill="white"/>
</g>
<g style="mix-blend-mode:overlay">
<path d="M24.679 47.8567L18.407 47.7836L18.4095 47.2621L24.6741 47.3338L24.679 47.8567Z" fill="white"/>
</g>
<g style="mix-blend-mode:overlay">
<path d="M32.2417 24.3234L26.2663 24.3105L26.2599 23.8414L32.2286 23.8533L32.2417 24.3234Z" fill="white"/>
</g>
<g style="mix-blend-mode:overlay">
<path d="M32.2902 26.051L26.29 26.0338L26.2835 25.5609L32.2768 25.577L32.2902 26.051Z" fill="white"/>
</g>
<g style="mix-blend-mode:overlay">
<path d="M32.3391 27.7929L26.314 27.7714L26.3075 27.2947L32.3256 27.315L32.3391 27.7929Z" fill="white"/>
</g>
<g style="mix-blend-mode:overlay">
<path d="M32.3883 29.5493L26.3381 29.5235L26.3315 29.0427L32.3748 29.0674L32.3883 29.5493Z" fill="white"/>
</g>
<g style="mix-blend-mode:overlay">
<path d="M32.438 31.3204L26.3625 31.2902L26.3558 30.8054L32.4244 30.8345L32.438 31.3204Z" fill="white"/>
</g>
<g style="mix-blend-mode:overlay">
<path d="M32.5387 34.9073L26.4118 34.868L26.405 34.375L32.5249 34.4131L32.5387 34.9073Z" fill="white"/>
</g>
<g style="mix-blend-mode:overlay">
<path d="M32.6929 40.4027L26.4873 40.3492L26.4803 39.8435L32.6786 39.8957L32.6929 40.4027Z" fill="white"/>
</g>
<g style="mix-blend-mode:overlay">
<path d="M32.4881 33.1065L26.3869 33.0717L26.3803 32.5828L32.4743 32.6164L32.4881 33.1065Z" fill="white"/>
</g>
<g style="mix-blend-mode:overlay">
<path d="M32.5897 36.7238L26.4367 36.6797L26.4299 36.1825L32.5756 36.2253L32.5897 36.7238Z" fill="white"/>
</g>
<g style="mix-blend-mode:overlay">
<path d="M32.641 38.5553L26.4619 38.5066L26.4551 38.0052L32.6269 38.0527L32.641 38.5553Z" fill="white"/>
</g>
<g style="mix-blend-mode:overlay">
<path d="M32.7452 42.266L26.5129 42.2075L26.5059 41.6975L32.7307 41.7546L32.7452 42.266Z" fill="white"/>
</g>
<g style="mix-blend-mode:overlay">
<path d="M32.7978 44.1452L26.5387 44.0818L26.5316 43.5674L32.7833 43.6295L32.7978 44.1452Z" fill="white"/>
</g>
<g style="mix-blend-mode:overlay">
<path d="M32.8511 46.0407L26.5648 45.9722L26.5576 45.4535L32.8364 45.5206L32.8511 46.0407Z" fill="white"/>
</g>
<g style="mix-blend-mode:overlay">
<path d="M32.9046 47.9527L26.5911 47.8791L26.5839 47.3557L32.89 47.4279L32.9046 47.9527Z" fill="white"/>
</g>
<path d="M62.8602 61.0011H3.19891V66.5195H62.8602V61.0011Z" fill="#74767B"/>
<path d="M3.63212 61.0011H1.89966V67.8179H3.63212V61.0011Z" fill="#5C5E61"/>
<path d="M62.2105 29.7745C62.2105 28.4719 60.834 27.3499 59.3401 27.3499H3.07009C1.5761 27.3499 0.492004 28.4718 0.492004 29.7745V59.409C0.492004 60.7116 1.5761 61.7583 3.07009 61.7583H59.3407C60.8346 61.7583 62.2111 60.7116 62.2111 59.409L62.2105 29.7745Z" fill="#5C5E61"/>
<path d="M60.2615 30.9686C60.2615 29.7768 59.2141 28.7565 57.8052 28.7565H4.72168C3.31346 28.7565 1.89966 29.7768 1.89966 30.9686V58.0577C1.89966 59.2497 3.31288 60.2442 4.72168 60.2442H57.8052C59.214 60.2442 60.2615 59.2498 60.2615 58.0577V30.9686Z" fill="#888B8F"/>
<path d="M81.7557 51.3646L78.0595 39.948C78.0142 39.8086 77.9258 39.6871 77.8071 39.601C77.6884 39.5148 77.5455 39.4685 77.3988 39.4686H62.5354V66.5194H82.6311L81.7557 51.3646Z" fill="#8AC13A"/>
<path d="M82.7424 62.3854C82.5435 62.2548 82.3016 62.1841 82.0243 62.1894L66.5397 62.4876L66.4712 66.8837L81.942 67.2641C82.5092 67.2641 83 66.9906 83 66.6075V62.8829C83 62.6955 82.9412 62.5161 82.7424 62.3854Z" fill="#8AC13A"/>
<path d="M78.8703 50.5747L76.6358 41.6851C76.5577 41.3773 76.2805 41.0912 75.9626 41.0912H67.2249C67.0372 41.0912 66.8575 41.2376 66.7267 41.3722C66.5959 41.5067 66.5253 41.7237 66.5308 41.9112L66.7403 49.0104C66.7501 49.3429 66.9948 49.6305 67.3235 49.6835L78.0863 51.4256C78.1996 51.4444 78.3159 51.4348 78.4245 51.3975C78.5331 51.3602 78.6307 51.2964 78.7085 51.212C78.7863 51.1276 78.8418 51.0251 78.87 50.9138C78.8983 50.8026 78.8983 50.686 78.8702 50.5747H78.8703Z" fill="#333435"/>
<path d="M78.4239 41.0885L78.3099 41.1073C78.2143 41.1232 78.123 41.1589 78.0421 41.2121C77.9611 41.2653 77.8921 41.3349 77.8396 41.4163C77.7872 41.4978 77.7524 41.5893 77.7374 41.685C77.7225 41.7807 77.7278 41.8785 77.7529 41.972L80.1883 51.0225C80.2337 51.1912 80.3412 51.3366 80.4892 51.4296C80.6372 51.5226 80.8149 51.5564 80.9867 51.5242L81.7557 51.3801L78.4239 41.0885Z" fill="#333435"/>
<path d="M69.8916 51.912H67.1983C66.8357 51.912 66.5417 52.2057 66.5417 52.568V52.879C66.5417 53.2414 66.8357 53.5351 67.1983 53.5351H69.8916C70.2541 53.5351 70.5481 53.2414 70.5481 52.879V52.568C70.5481 52.2057 70.2541 51.912 69.8916 51.912Z" fill="#E5B731"/>
<path d="M63.5753 31.5178C63.3425 31.5008 63.0442 31.5851 62.873 31.7441C62.7018 31.9031 62.5355 32.1298 62.5355 32.3633V39.4683H71.6017C71.6017 39.4683 71.1143 32.0679 63.5753 31.5178Z" fill="#8AC13A"/>
<path d="M71.8297 74.0449C75.7185 74.0449 78.8709 70.8946 78.8709 67.0085C78.8709 63.1224 75.7185 59.9722 71.8297 59.9722C67.941 59.9722 64.7885 63.1224 64.7885 67.0085C64.7885 70.8946 67.941 74.0449 71.8297 74.0449Z" fill="#333435"/>
<path d="M75.8731 71.0491C78.1062 68.8176 78.1062 65.1995 75.8731 62.968C73.64 60.7364 70.0194 60.7364 67.7864 62.968C65.5533 65.1995 65.5533 68.8176 67.7864 71.0491C70.0194 73.2807 73.64 73.2807 75.8731 71.0491Z" fill="#979AA0"/>
<path d="M76.6328 69.0775C76.6163 69.0776 76.6001 69.0735 76.5856 69.0658C76.571 69.058 76.5586 69.0467 76.5495 69.033C76.5404 69.0193 76.5349 69.0035 76.5334 68.9871C76.5319 68.9707 76.5345 68.9541 76.541 68.939C76.7997 68.3282 76.9323 67.6716 76.931 67.0084C76.931 64.2737 74.7045 62.0488 71.9679 62.0488C71.1197 62.0486 70.2857 62.2655 69.5452 62.6787C69.5221 62.6916 69.4949 62.6949 69.4694 62.6877C69.444 62.6806 69.4224 62.6636 69.4095 62.6406C69.3965 62.6175 69.3933 62.5903 69.4005 62.5649C69.4076 62.5394 69.4246 62.5179 69.4476 62.505C70.2179 62.075 71.0856 61.8493 71.9679 61.8495C74.8146 61.8495 77.1305 64.1639 77.1305 67.0084C77.1318 67.6983 76.9938 68.3813 76.7246 69.0166C76.7171 69.0346 76.7043 69.0501 76.688 69.0609C76.6716 69.0718 76.6524 69.0775 76.6328 69.0775Z" fill="#B9BCC5"/>
<path d="M73.6841 68.8616C74.7082 67.8382 74.7082 66.1789 73.6841 65.1555C72.6599 64.1321 70.9995 64.1321 69.9754 65.1555C68.9513 66.1789 68.9513 67.8382 69.9754 68.8616C70.9995 69.885 72.6599 69.885 73.6841 68.8616Z" fill="#333435"/>
<path d="M28.418 74.0448C32.3068 74.0448 35.4593 70.8946 35.4593 67.0085C35.4593 63.1224 32.3068 59.9722 28.418 59.9722C24.5293 59.9722 21.3768 63.1224 21.3768 67.0085C21.3768 70.8946 24.5293 74.0448 28.418 74.0448Z" fill="#333435"/>
<path d="M32.4615 71.0492C34.6946 68.8177 34.6946 65.1996 32.4615 62.9681C30.2284 60.7365 26.6078 60.7365 24.3747 62.9681C22.1416 65.1996 22.1416 68.8177 24.3747 71.0492C26.6078 73.2808 30.2284 73.2808 32.4615 71.0492Z" fill="url(#paint0_linear)"/>
<path d="M33.2212 69.0776C33.2047 69.0777 33.1885 69.0736 33.1739 69.0659C33.1594 69.0581 33.147 69.0468 33.1379 69.0331C33.1288 69.0194 33.1232 69.0036 33.1218 68.9872C33.1203 68.9708 33.1229 68.9543 33.1294 68.9391C33.388 68.3284 33.5207 67.6717 33.5194 67.0085C33.5194 64.2738 31.2928 62.049 28.5562 62.049C27.7081 62.0487 26.8741 62.2656 26.1336 62.6788C26.1222 62.6856 26.1095 62.6901 26.0963 62.6919C26.0832 62.6937 26.0697 62.6929 26.0569 62.6895C26.044 62.686 26.032 62.6801 26.0215 62.6719C26.011 62.6638 26.0022 62.6536 25.9957 62.642C25.9892 62.6304 25.985 62.6176 25.9835 62.6044C25.982 62.5912 25.9832 62.5778 25.987 62.565C25.9907 62.5523 25.997 62.5404 26.0054 62.5301C26.0138 62.5198 26.0242 62.5113 26.036 62.5051C26.8063 62.0751 27.6739 61.8494 28.5562 61.8496C31.4029 61.8496 33.7188 64.164 33.7188 67.0085C33.7201 67.6984 33.5821 68.3814 33.313 69.0167C33.3054 69.0348 33.2927 69.0502 33.2763 69.061C33.26 69.0719 33.2408 69.0777 33.2212 69.0776Z" fill="white"/>
<path d="M30.2724 68.8617C31.2966 67.8383 31.2966 66.179 30.2724 65.1556C29.2483 64.1322 27.5879 64.1322 26.5638 65.1556C25.5396 66.179 25.5396 67.8383 26.5638 68.8617C27.5879 69.8851 29.2483 69.8851 30.2724 68.8617Z" fill="#333435"/>
<path d="M12.3106 74.045C16.1994 74.045 19.3518 70.8947 19.3518 67.0086C19.3518 63.1226 16.1994 59.9723 12.3106 59.9723C8.42187 59.9723 5.26941 63.1226 5.26941 67.0086C5.26941 70.8947 8.42187 74.045 12.3106 74.045Z" fill="#333435"/>
<path d="M16.354 71.0491C18.5871 68.8176 18.5871 65.1995 16.354 62.968C14.1209 60.7364 10.5003 60.7364 8.26725 62.968C6.03416 65.1995 6.03416 68.8176 8.26725 71.0491C10.5003 73.2807 14.1209 73.2807 16.354 71.0491Z" fill="#979AA0"/>
<path d="M17.1137 69.0776C17.0972 69.0777 17.081 69.0737 17.0664 69.0659C17.0519 69.0581 17.0395 69.0469 17.0304 69.0331C17.0213 69.0194 17.0158 69.0036 17.0143 68.9872C17.0128 68.9708 17.0154 68.9543 17.0219 68.9391C17.2805 68.3284 17.4131 67.6717 17.4119 67.0085C17.4119 64.2738 15.1854 62.049 12.4488 62.049C11.6007 62.0487 10.7666 62.2656 10.0262 62.6788C10.0147 62.6856 10.002 62.6901 9.98886 62.6919C9.97568 62.6937 9.96227 62.6929 9.94941 62.6895C9.93655 62.686 9.92451 62.6801 9.914 62.6719C9.90349 62.6638 9.89472 62.6536 9.8882 62.642C9.88169 62.6304 9.87756 62.6176 9.87606 62.6044C9.87456 62.5912 9.87573 62.5778 9.87948 62.565C9.88324 62.5523 9.88952 62.5404 9.89794 62.5301C9.90636 62.5198 9.91676 62.5113 9.92852 62.5051C10.6988 62.0751 11.5665 61.8494 12.4488 61.8496C15.2955 61.8496 17.6113 64.164 17.6113 67.0085C17.6126 67.6984 17.4746 68.3814 17.2055 69.0167C17.1979 69.0348 17.1852 69.0502 17.1688 69.0611C17.1525 69.0719 17.1333 69.0777 17.1137 69.0776Z" fill="#B9BCC5"/>
<path d="M14.1649 68.8617C15.1891 67.8383 15.1891 66.179 14.1649 65.1556C13.1408 64.1322 11.4804 64.1322 10.4563 65.1556C9.43214 66.179 9.43214 67.8383 10.4563 68.8617C11.4804 69.8851 13.1408 69.8851 14.1649 68.8617Z" fill="#333435"/>
<path d="M82.0883 58.0796H80.2301C79.8462 58.0796 79.535 58.3906 79.535 58.7741V61.2803C79.535 61.6639 79.8462 61.9749 80.2301 61.9749H82.0883C82.4722 61.9749 82.7834 61.6639 82.7834 61.2803V58.7741C82.7834 58.3906 82.4722 58.0796 82.0883 58.0796Z" fill="#768925"/>
<path opacity="0.8" d="M80.8346 58.0796V61.7586H80.3503C79.9668 61.7586 79.5356 61.3913 79.5356 61.0082V58.7232C79.5356 58.34 79.967 58.0796 80.3503 58.0796H80.8346Z" fill="white"/>
<path d="M63.7263 57.2054C63.7132 57.2054 63.7003 57.2028 63.6882 57.1978C63.6761 57.1928 63.6651 57.1854 63.6558 57.1762C63.6466 57.1669 63.6393 57.1559 63.6343 57.1438C63.6293 57.1318 63.6267 57.1188 63.6267 57.1057V41.0916C63.6262 41.0782 63.6285 41.0649 63.6333 41.0524C63.6381 41.0399 63.6454 41.0285 63.6547 41.0189C63.664 41.0093 63.6751 41.0017 63.6874 40.9964C63.6998 40.9912 63.713 40.9885 63.7264 40.9885C63.7398 40.9885 63.753 40.9912 63.7653 40.9964C63.7777 41.0017 63.7888 41.0093 63.7981 41.0189C63.8074 41.0285 63.8147 41.0399 63.8195 41.0524C63.8243 41.0649 63.8265 41.0782 63.8261 41.0916V57.1057C63.8261 57.1188 63.8235 57.1318 63.8185 57.1439C63.8135 57.156 63.8062 57.167 63.7969 57.1762C63.7876 57.1855 63.7766 57.1928 63.7645 57.1978C63.7524 57.2028 63.7394 57.2054 63.7263 57.2054Z" fill="#F7EBA6"/>
<path d="M69.9379 38.7516C69.9171 38.7516 69.8969 38.7452 69.88 38.7331C69.8631 38.7211 69.8504 38.7041 69.8436 38.6845C68.7496 35.5159 67.0514 34.157 65.8196 33.5751C64.4858 32.9453 63.395 33.0634 63.3842 33.0648C63.3587 33.0665 63.3335 33.0583 63.3138 33.042C63.2942 33.0256 63.2816 33.0024 63.2786 32.977C63.2756 32.9516 63.2825 32.9261 63.2978 32.9056C63.3131 32.8852 63.3357 32.8714 63.3609 32.8671C63.4074 32.8618 64.5105 32.7401 65.8936 33.3899C67.1639 33.9866 68.9132 35.3786 70.0324 38.6197C70.0375 38.6347 70.039 38.6507 70.0368 38.6665C70.0345 38.6822 70.0285 38.6971 70.0193 38.71C70.01 38.723 69.9979 38.7335 69.9837 38.7408C69.9696 38.748 69.954 38.7518 69.9381 38.7518L69.9379 38.7516Z" fill="#F7EBA6"/>
<path d="M15.8456 52.6167L15.8456 52.6167C27.1377 51.6658 40.9492 51.669 47.6535 51.742C49.6139 51.7634 51.1895 53.3575 51.1895 55.3166V72.3134C51.1895 74.1713 49.6634 75.6681 47.804 75.6326L47.8039 75.6326L15.7712 75.0242C15.7712 75.0242 15.7711 75.0242 15.7711 75.0242C13.8761 74.9881 12.379 73.409 12.4437 71.5184L13.501 55.093L13.5011 55.0931L13.5017 55.079C13.5485 53.7834 14.5541 52.7255 15.8456 52.6167Z" fill="#8AC13A" stroke="#8AC13A"/>
<path d="M47.8052 57.1556C47.8337 58.6018 47.7908 60.8966 47.7555 62.3792C47.7512 62.5613 47.7089 62.7406 47.6313 62.9055C47.5537 63.0704 47.4425 63.2173 47.3048 63.3368C47.1671 63.4563 47.006 63.5457 46.8317 63.5994C46.6575 63.6531 46.4739 63.6698 46.2928 63.6485L40.7737 63.002C40.5992 62.9816 40.4306 62.9263 40.278 62.8395C40.1253 62.7527 39.9917 62.6361 39.885 62.4966C39.7783 62.3572 39.7008 62.1977 39.657 62.0278C39.6132 61.8578 39.604 61.6807 39.6301 61.5071L40.3075 56.9909C40.3541 56.6807 40.5105 56.3974 40.7484 56.1927C40.9863 55.988 41.2898 55.8754 41.6037 55.8754H46.4945C47.2076 55.8754 47.7911 56.4435 47.8052 57.1556Z" fill="white"/>
<path opacity="0.37" d="M33.3818 65.7144L28.7778 66.2105C28.6266 66.2268 28.4736 66.2096 28.3297 66.1603C28.1858 66.111 28.0546 66.0306 27.9452 65.925C27.8358 65.8194 27.751 65.691 27.6968 65.549C27.6425 65.407 27.6202 65.2548 27.6313 65.1032L28.6378 51.4171C30.5678 51.356 32.4714 51.3114 34.3084 51.28V64.6832C34.3084 64.939 34.2138 65.1858 34.0427 65.3762C33.8717 65.5665 33.6363 65.687 33.3818 65.7144Z" fill="white"/>
<path d="M31.4947 63.3423C31.4879 63.4601 31.4363 63.571 31.3505 63.652C31.2646 63.7331 31.1509 63.7783 31.0328 63.7783C31.0237 63.7783 31.0148 63.7783 31.0057 63.7774C30.945 63.7739 30.8856 63.7585 30.8309 63.732C30.7761 63.7056 30.7271 63.6686 30.6867 63.6233C30.6463 63.5779 30.6152 63.525 30.5952 63.4677C30.5752 63.4103 30.5668 63.3495 30.5703 63.2889L31.2645 51.3448C31.5758 51.3371 31.8846 51.3301 32.1932 51.3232L31.4947 63.3423Z" fill="white"/>
<path d="M45.2526 61.4668C45.2919 61.4668 45.3297 61.4519 45.3583 61.425C45.387 61.3981 45.4043 61.3613 45.4067 61.3221L45.6455 57.5599C45.6468 57.5397 45.6441 57.5194 45.6375 57.5002C45.6309 57.4811 45.6207 57.4634 45.6072 57.4482C45.5938 57.433 45.5775 57.4206 45.5593 57.4117C45.5411 57.4028 45.5213 57.3975 45.5011 57.3963C45.4808 57.3946 45.4603 57.397 45.4409 57.4034C45.4216 57.4098 45.4037 57.4201 45.3884 57.4336C45.3731 57.4471 45.3607 57.4635 45.3519 57.4819C45.3431 57.5004 45.3382 57.5203 45.3373 57.5407L45.0986 61.3025C45.0973 61.3227 45.1001 61.343 45.1066 61.3622C45.1132 61.3813 45.1235 61.399 45.1369 61.4142C45.1503 61.4294 45.1666 61.4418 45.1848 61.4507C45.203 61.4596 45.2228 61.4648 45.2431 61.466C45.2462 61.4665 45.2494 61.4667 45.2526 61.4668Z" fill="#333435"/>
<path d="M44.7613 61.4667C44.8013 61.4667 44.8398 61.4512 44.8686 61.4233C44.8974 61.3955 44.9142 61.3575 44.9156 61.3175L45.0407 57.4833C45.042 57.4424 45.0271 57.4027 44.9991 57.3728C44.9711 57.3429 44.9324 57.3253 44.8915 57.324C44.7931 57.3191 44.735 57.3882 44.7319 57.4731L44.6068 61.3073C44.6055 61.3482 44.6205 61.388 44.6485 61.4178C44.6765 61.4477 44.7152 61.4653 44.7561 61.4667H44.7613Z" fill="#333435"/>
<path d="M44.0949 61.4664C44.0746 61.4655 44.0548 61.4606 44.0364 61.452C44.0181 61.4434 44.0016 61.4313 43.988 61.4163C43.9744 61.4013 43.9638 61.3838 43.957 61.3647C43.9501 61.3457 43.9471 61.3254 43.9481 61.3052C44.0093 60.0172 44.126 57.5603 44.1278 57.4767C44.1291 57.4365 44.146 57.3984 44.175 57.3705C44.204 57.3426 44.2427 57.3271 44.2829 57.3273C44.3232 57.3275 44.3617 57.3434 44.3904 57.3715C44.4191 57.3997 44.4357 57.438 44.4366 57.4782C44.4366 57.5418 44.2864 60.6894 44.2563 61.3196C44.2545 61.3593 44.2374 61.3967 44.2088 61.4241C44.1801 61.4515 44.1419 61.4667 44.1022 61.4668C44.0998 61.4668 44.0973 61.4667 44.0949 61.4664Z" fill="#333435"/>
<path d="M43.0728 61.621C43.1527 61.6209 43.2295 61.5899 43.287 61.5343C43.3445 61.4788 43.3781 61.4032 43.3809 61.3233C43.5114 57.6083 43.4885 57.5246 43.474 57.4691C43.4533 57.3936 43.4048 57.3288 43.3381 57.2877C43.2714 57.2466 43.1916 57.2324 43.1149 57.248C43.0381 57.2635 42.9701 57.3076 42.9246 57.3713C42.8792 57.435 42.8597 57.5137 42.87 57.5912C42.8799 57.8144 42.8109 59.9754 42.7645 61.3012C42.763 61.3417 42.7696 61.3821 42.7838 61.4201C42.7979 61.458 42.8195 61.4928 42.8471 61.5224C42.8747 61.5521 42.9079 61.576 42.9448 61.5928C42.9817 61.6096 43.0216 61.619 43.0621 61.6204C43.0656 61.621 43.0695 61.621 43.0728 61.621Z" fill="#333435"/>
<path d="M42.4041 61.4668C42.4243 61.4668 42.4444 61.4628 42.4632 61.4551C42.4819 61.4473 42.499 61.436 42.5133 61.4216C42.5276 61.4073 42.539 61.3903 42.5468 61.3715C42.5545 61.3528 42.5585 61.3327 42.5585 61.3125V57.5502C42.5574 57.5101 42.5406 57.4719 42.5118 57.4439C42.483 57.4158 42.4443 57.4001 42.4041 57.4001C42.3639 57.4001 42.3253 57.4158 42.2964 57.4439C42.2676 57.4719 42.2509 57.5101 42.2498 57.5502V61.3125C42.2497 61.3327 42.2537 61.3528 42.2614 61.3715C42.2692 61.3903 42.2805 61.4073 42.2949 61.4216C42.3092 61.436 42.3262 61.4473 42.345 61.4551C42.3637 61.4628 42.3838 61.4668 42.4041 61.4668Z" fill="#333435"/>
<path d="M41.8638 61.4668C41.9043 61.4669 41.9431 61.451 41.9719 61.4228C42.0008 61.3945 42.0174 61.356 42.0182 61.3156C42.0477 60.0084 42.1167 57.8731 42.1787 57.6164C42.1955 57.5863 42.2018 57.5514 42.1964 57.5172C42.191 57.4831 42.1744 57.4518 42.1491 57.4282C42.1238 57.4047 42.0914 57.3903 42.0569 57.3874C42.0225 57.3845 41.9881 57.3932 41.9592 57.4121C41.875 57.4672 41.7951 57.5195 41.7095 61.3082C41.7086 61.3491 41.724 61.3887 41.7522 61.4183C41.7805 61.4479 41.8193 61.4651 41.8602 61.4661L41.8638 61.4668Z" fill="#333435"/>
<path d="M46.0833 61.8093C46.1624 61.8092 46.2384 61.7788 46.2957 61.7244C46.353 61.67 46.3873 61.5957 46.3914 61.5168L46.5974 57.5662C46.6016 57.4845 46.5731 57.4044 46.5183 57.3437C46.4634 57.2829 46.3867 57.2463 46.3049 57.242C46.1433 57.2304 45.9895 57.364 45.9805 57.5343L45.7746 61.4848C45.7704 61.5666 45.7988 61.6466 45.8537 61.7074C45.9085 61.7682 45.9853 61.8048 46.0671 61.8091C46.0724 61.8093 46.0779 61.8093 46.0833 61.8093Z" fill="#333435"/>
<path d="M43.5849 38.3897C43.6051 39.4054 43.5748 41.017 43.55 42.0581C43.547 42.1861 43.5173 42.312 43.4628 42.4278C43.4082 42.5436 43.3301 42.6467 43.2334 42.7306C43.1367 42.8145 43.0236 42.8773 42.9012 42.915C42.7788 42.9527 42.6499 42.9644 42.5227 42.9494L38.6472 42.4959C38.5247 42.4815 38.4063 42.4427 38.2991 42.3817C38.1919 42.3208 38.098 42.2389 38.0231 42.1409C37.9482 42.043 37.8938 41.931 37.863 41.8116C37.8323 41.6923 37.8259 41.5679 37.8442 41.446L38.3199 38.2744C38.3526 38.0565 38.4625 37.8576 38.6295 37.7139C38.7966 37.5701 39.0097 37.4911 39.2302 37.4911H42.6652C42.9056 37.4909 43.1366 37.5849 43.3085 37.7529C43.4804 37.9209 43.5797 38.1495 43.5849 38.3897Z" fill="white"/>
<path opacity="0.19" d="M33.4557 44.4004L30.2224 44.7493C30.1162 44.7608 30.0087 44.7487 29.9077 44.7141C29.8066 44.6795 29.7145 44.6231 29.6376 44.5489C29.5608 44.4747 29.5013 44.3845 29.4632 44.2848C29.4251 44.1851 29.4094 44.0782 29.4172 43.9717L30.1241 34.3603C31.4795 34.3174 32.8164 34.2861 34.1064 34.264V43.6764C34.1063 43.856 34.0399 44.0293 33.9198 44.1629C33.7997 44.2966 33.6344 44.3811 33.4557 44.4004Z" fill="white"/>
<path d="M32.1304 42.7345C32.1257 42.8173 32.0894 42.8951 32.0291 42.9521C31.9688 43.009 31.889 43.0407 31.806 43.0407C31.7996 43.0407 31.7933 43.0407 31.7869 43.04C31.7443 43.0376 31.7026 43.0268 31.6641 43.0082C31.6257 42.9897 31.5913 42.9637 31.5629 42.9318C31.5345 42.9 31.5127 42.8628 31.4987 42.8225C31.4846 42.7822 31.4787 42.7395 31.4812 42.697L31.9687 34.3089C32.1874 34.3036 32.4042 34.2987 32.621 34.2938L32.1304 42.7345Z" fill="white"/>
<path d="M42.9602 33.3141L41.4388 34.1321C39.6142 35.2423 37.9816 35.8289 36.5123 36.0491C31.9246 36.737 28.9346 33.8444 26.7065 32.0896C23.7651 29.7732 21.4756 30.9 21.4756 30.9L24.6128 36.8832C29.2978 41.2973 34.1012 40.3172 37.1295 38.8866C39.0572 37.9761 40.2657 36.8832 40.2657 36.8832C43.7121 34.8296 42.9602 33.3141 42.9602 33.3141Z" fill="url(#paint1_linear)"/>
<path d="M47.442 35.4564C47.3936 35.2953 47.3094 35.1472 47.1958 35.023C47.0823 34.8989 46.9422 34.8018 46.786 34.7391L43.6985 33.4983C43.6985 33.4983 43.652 33.1028 44.3502 32.8337C45.0485 32.5646 44.8856 31.7825 44.8856 31.7825C44.8856 31.7825 43.9313 32.2178 42.5327 32.9082C41.7332 33.3036 41.2846 34.0002 41.0468 34.5247L41.8415 35.5692C43.7445 36.1405 45.6705 36.2497 47.612 36.0228L47.442 35.4564Z" fill="url(#paint2_linear)"/>
<path d="M20.8015 79.0636C20.8015 79.0636 20.5664 80.3932 20.4512 81.7093C20.4061 82.2237 20.803 82.6703 21.3193 82.6919C23.0731 82.7649 26.8249 82.9068 28.1712 82.8468C28.2182 82.8445 28.264 82.831 28.3047 82.8075C28.3454 82.784 28.3799 82.7511 28.4053 82.7116C28.4307 82.672 28.4463 82.627 28.4508 82.5802C28.4553 82.5334 28.4485 82.4863 28.431 82.4426C28.3684 82.2851 28.2475 82.1577 28.0935 82.0867L21.8962 79.2405L20.8015 79.0636Z" fill="#74767B"/>
<path d="M20.6088 78.2825L20.7974 79.8728C20.7974 79.8728 21.883 80.3778 22.6246 79.809L22.175 78.0367L20.6088 78.2825Z" fill="url(#paint3_linear)"/>
<path d="M20.3058 47.3347C20.2243 47.765 20.4521 69.8901 22.6247 79.3268C22.6596 79.4808 22.8848 79.783 22.8073 79.9155C22.6187 80.2378 21.2305 80.1473 20.4476 80.1746C20.2052 80.183 20.0752 79.8986 20.0066 79.6575C19.3855 77.4682 16.4104 66.4983 16.0216 56.0191C15.5879 44.3096 16.0216 55.6204 16.0216 55.6204L15.8289 48.202L20.3058 47.3347Z" fill="#333435"/>
<path d="M13.6725 79.7572C13.6725 79.7572 13.2983 80.4285 12.9363 82.2121C12.9205 82.288 12.9208 82.3664 12.9373 82.4422C12.9538 82.518 12.9861 82.5895 13.032 82.652C13.078 82.7145 13.1365 82.7666 13.2039 82.8051C13.2713 82.8435 13.3461 82.8673 13.4233 82.875C14.0024 82.9319 14.894 83.0052 15.6083 83.0002C15.9375 82.9979 16.1945 82.7115 16.1553 82.3848C16.0761 81.7335 15.8294 80.6656 15.0683 79.8332L13.6725 79.7572Z" fill="#74767B"/>
<path d="M13.3439 77.7117L13.7851 80.1166C13.7851 80.1166 14.2213 80.4409 15.0844 80.2058L14.8738 77.6182L13.3439 77.7117Z" fill="url(#paint4_linear)"/>
<path d="M12.2834 48.1971C10.5066 59.3822 12.5374 76.7001 13.2667 79.9217C13.3112 80.1195 13.4645 80.2701 13.6555 80.3032C13.9814 80.3595 14.5167 80.4054 15.0453 80.2451C15.2274 80.1898 15.3553 80.0186 15.3626 79.821C15.4605 77.2165 15.2844 61.227 16.9399 54.9079C17.0216 54.5913 17.2088 54.312 17.4707 54.116L20.1954 51.8971L20.246 47.1125L12.2834 48.1971Z" fill="#333435"/>
<path d="M22.4641 30.2527C17.7811 30.1754 12.6141 31.4814 12.6141 31.4814C11.4635 38.1907 11.9255 45.6262 12.1649 48.0749C12.214 48.5769 11.9454 49.1083 12.4442 49.1888C14.8944 49.5842 18.7458 49.1818 19.9426 48.8343C20.3799 48.7074 20.3056 48.242 20.3986 47.7964C21.2016 43.9453 23.4995 35.4515 23.4995 35.4515C24.6134 36.8833 26.1849 38.8867 28.5083 39.42C27.3243 38.0486 29.5953 35.1724 29.3528 34.1409C27.2518 31.7825 23.9084 30.2765 22.4641 30.2527Z" fill="#8AC13A"/>
<path d="M17.7206 26.4535L16.2309 30.7597C16.2188 30.7941 16.2192 30.8318 16.2322 30.8659C16.2451 30.9001 16.2697 30.9286 16.3016 30.9464C16.7078 31.1709 18.1712 31.8195 19.9346 30.7022C20.0257 30.6453 20.103 30.5691 20.1612 30.4789C20.2194 30.3887 20.257 30.2868 20.2713 30.1805L20.7538 26.4535H17.7206Z" fill="url(#paint5_linear)"/>
<path d="M20.9627 22.4661C20.9627 22.4661 22.5989 25.5439 22.3892 26.7872C22.1795 28.0306 20.1515 27.9413 18.3809 26.9315L17.1429 23.608L20.9627 22.4661Z" fill="url(#paint6_linear)"/>
<path d="M18.4591 25.2994C18.4761 25.292 18.4912 25.2809 18.5035 25.2671C18.5157 25.2533 18.5248 25.2369 18.5301 25.2192C18.5354 25.2015 18.5367 25.1828 18.534 25.1645C18.5313 25.1462 18.5247 25.1287 18.5145 25.1133C18.3835 24.9132 18.1377 24.5049 18.0593 24.148C18.0593 24.148 17.7652 23.9597 18.8081 23.7103C19.3758 23.5745 20.3824 23.4621 20.8248 23.0542C21.3198 22.5977 20.4071 21.7352 20.0233 21.5036C19.5168 21.198 18.9001 21.0173 18.3289 21.1712C18.0533 21.2456 17.8038 21.3928 17.5582 21.5384C17.1401 21.7862 16.7072 22.0479 16.441 22.4547C16.2688 22.7182 16.1786 23.0253 16.096 23.3289C15.9773 23.765 15.8687 24.2117 15.8893 24.6632C15.9442 25.866 17.3548 26.9436 18.4893 27.0753C18.5107 27.0775 18.5324 27.0743 18.5522 27.066C18.5721 27.0576 18.5895 27.0444 18.6029 27.0276C18.6163 27.0107 18.6252 26.9907 18.6288 26.9695C18.6324 26.9483 18.6306 26.9265 18.6236 26.9062L18.1599 25.5592C18.1497 25.529 18.151 25.4961 18.1638 25.4669C18.1765 25.4377 18.1997 25.4143 18.2288 25.4012L18.4591 25.2994Z" fill="#333435"/>
<path d="M18.6455 25.4905C18.6455 25.4905 17.4805 24.6917 17.3954 25.3644C17.3103 26.0371 18.4445 26.3387 19.0062 26.0879L18.6455 25.4905Z" fill="url(#paint7_linear)"/>
<path d="M21.5588 21.7111C19.1684 17.1986 12.973 21.298 15.856 25.0989C18 23.6745 20.4225 21.557 21.5588 21.7111Z" fill="#39B54A"/>
<path d="M17.8251 23.6224L22.1175 23.4897C22.1712 23.4881 22.2234 23.4726 22.2693 23.4447C22.3151 23.4169 22.3529 23.3776 22.3789 23.3307C22.763 22.6369 23.326 22.1948 24.0297 21.952C24.1187 21.9212 24.1002 21.7901 24.0064 21.7837L21.3749 21.6049C21.372 21.6047 21.369 21.6047 21.3661 21.6049C20.0545 21.7056 18.8935 22.4941 17.786 23.5271C17.7779 23.5348 17.7723 23.5447 17.7699 23.5556C17.7676 23.5665 17.7686 23.5779 17.7728 23.5882C17.777 23.5985 17.7843 23.6073 17.7937 23.6134C17.803 23.6195 17.814 23.6227 17.8251 23.6224Z" fill="#006837"/>
<path d="M13.1444 38.3114C15.7654 35.371 15.4999 33.1073 12.5416 31.4777C12.5416 31.4777 7.63807 34.8071 6.83167 39.0284C7.75818 39.0967 9.4442 39.3374 11.0944 40.1702C11.457 38.177 13.1444 38.3114 13.1444 38.3114Z" fill="#8AC13A"/>
<path d="M18.8403 41.3374C18.8403 41.3374 13.3354 44.4466 11.4773 41.7917C11.0911 41.2405 10.9994 40.6925 11.0944 40.1705C9.44421 39.3378 7.75818 39.0971 6.83167 39.0288C6.58854 40.3015 6.71715 41.6549 7.46548 43.0229C10.7193 48.9711 19.5692 42.6942 19.5692 42.6942L18.8403 41.3374Z" fill="url(#paint8_linear)"/>
<path d="M18.1788 45.2708L21.1836 34.7858C21.2001 34.7276 21.2335 34.6757 21.2795 34.6365C21.3256 34.5973 21.3822 34.5726 21.4423 34.5656C21.9867 34.5021 23.5642 34.3239 25.3854 34.1702C27.5792 33.9848 30.1269 33.8346 31.6493 33.9624C31.6993 33.9663 31.7476 33.9824 31.79 34.0094C31.8323 34.0363 31.8674 34.0732 31.8922 34.1168C31.917 34.1604 31.9307 34.2094 31.9321 34.2595C31.9335 34.3097 31.9226 34.3594 31.9004 34.4043C31.0346 36.1546 27.4735 43.2744 25.6902 45.6067C25.6612 45.6448 25.6237 45.6756 25.5807 45.6967C25.5377 45.7178 25.4904 45.7286 25.4424 45.7282L18.4712 45.6634C18.4237 45.6631 18.377 45.6517 18.3347 45.6303C18.2924 45.6088 18.2556 45.5778 18.2273 45.5398C18.1989 45.5018 18.1798 45.4577 18.1714 45.411C18.163 45.3643 18.1655 45.3163 18.1788 45.2708Z" fill="#333435"/>
<path d="M25.6971 33.2603L27.8755 32.8976C27.9021 32.8931 27.9294 32.8955 27.9548 32.9047C27.9801 32.9138 28.0027 32.9294 28.0203 32.9498C28.0378 32.9702 28.0498 32.9949 28.0551 33.0213C28.0603 33.0477 28.0586 33.0751 28.0501 33.1007L27.8346 33.7537C27.8254 33.7816 27.8085 33.8063 27.7858 33.825C27.7632 33.8438 27.7357 33.8557 27.7065 33.8595L25.6103 34.1393C25.5852 34.1427 25.5597 34.1399 25.5359 34.1312C25.5121 34.1226 25.4908 34.1082 25.4738 34.0895C25.4568 34.0708 25.4446 34.0482 25.4382 34.0237C25.4319 33.9992 25.4316 33.9736 25.4373 33.949L25.5708 33.3791C25.5778 33.349 25.5935 33.3217 25.616 33.3006C25.6384 33.2795 25.6667 33.2655 25.6971 33.2603Z" fill="#A8ABB2"/>
<path d="M24.066 35.1033L24.2455 34.1692C24.2542 34.1235 24.2774 34.0818 24.3117 34.0504C24.3459 34.019 24.3895 33.9994 24.4358 33.9947L28.8357 33.5486C28.87 33.5451 28.9047 33.5499 28.9368 33.5625C28.9689 33.5752 28.9975 33.5953 29.0202 33.6213C29.043 33.6472 29.0591 33.6783 29.0674 33.7118C29.0756 33.7453 29.0757 33.7802 29.0676 33.8138L28.7883 34.9778C28.7774 35.0232 28.7521 35.0638 28.7162 35.0936C28.6803 35.1234 28.6357 35.1407 28.5891 35.1431L24.2889 35.3598C24.2562 35.3614 24.2236 35.3555 24.1934 35.3427C24.1633 35.3299 24.1365 35.3104 24.1151 35.2857C24.0936 35.261 24.078 35.2317 24.0695 35.2001C24.061 35.1685 24.0598 35.1354 24.066 35.1033Z" fill="#A8ABB2"/>
<path d="M18.9048 42.7375C18.9048 42.7375 18.4858 41.0176 18.6551 40.4074C18.8243 39.7972 19.1511 39.0127 20.2415 39.1871C21.3318 39.3614 22.618 39.8204 22.618 39.8204C22.618 39.8204 22.5529 40.6152 21.7243 40.3588L22.2381 40.7562C22.2381 40.7562 22.1647 41.3925 21.4648 41.0525L21.9427 41.5795C21.9427 41.5795 21.6421 42.1022 21.1271 41.767C20.6121 41.4318 20.3653 42.9446 18.9048 42.7375Z" fill="url(#paint9_linear)"/>
<path d="M17.1601 36.1904C16.8164 36.218 13.9097 36.3111 13.9097 36.3111L14.027 39.2353L15.5328 40.0843L17.1601 39.2353V36.1904Z" fill="#39B54A"/>
<path d="M17.3909 36.1904L13.9162 36.3111L13.7742 37.433L15.5826 37.9025L17.5047 37.0464L17.3909 36.1904Z" fill="#009245"/>
</g>
<defs>
<linearGradient id="paint0_linear" x1="41.6823" y1="55.5731" x2="18.793" y2="75.3342" gradientUnits="userSpaceOnUse">
<stop stop-color="#F3D33F"/>
<stop offset="1" stop-color="#F3D33F"/>
</linearGradient>
<linearGradient id="paint1_linear" x1="43.8492" y1="23.9362" x2="59.5754" y2="11.7902" gradientUnits="userSpaceOnUse">
<stop stop-color="white"/>
<stop offset="1" stop-color="#EFEFF4"/>
</linearGradient>
<linearGradient id="paint2_linear" x1="27900.2" y1="11668" x2="33910.8" y2="4667.85" gradientUnits="userSpaceOnUse">
<stop stop-color="white"/>
<stop offset="1" stop-color="#EFEFF4"/>
</linearGradient>
<linearGradient id="paint3_linear" x1="9654.06" y1="13963.8" x2="10003.2" y2="13963.8" gradientUnits="userSpaceOnUse">
<stop stop-color="white"/>
<stop offset="1" stop-color="#EFEFF4"/>
</linearGradient>
<linearGradient id="paint4_linear" x1="7240.12" y1="18225.1" x2="7500.41" y2="18225.1" gradientUnits="userSpaceOnUse">
<stop stop-color="white"/>
<stop offset="1" stop-color="#EFEFF4"/>
</linearGradient>
<linearGradient id="paint5_linear" x1="7062.82" y1="12861.4" x2="8142.15" y2="10396.6" gradientUnits="userSpaceOnUse">
<stop stop-color="white"/>
<stop offset="1" stop-color="white"/>
</linearGradient>
<linearGradient id="paint6_linear" x1="6766.7" y1="8810.36" x2="4486.28" y2="6306.18" gradientUnits="userSpaceOnUse">
<stop stop-color="white"/>
<stop offset="1" stop-color="#FBFBFF"/>
</linearGradient>
<linearGradient id="paint7_linear" x1="1903.39" y1="1951.12" x2="1482.58" y2="1263.81" gradientUnits="userSpaceOnUse">
<stop stop-color="white"/>
<stop offset="1" stop-color="white"/>
</linearGradient>
<linearGradient id="paint8_linear" x1="2764.05" y1="19680.9" x2="-6297.46" y2="6910.57" gradientUnits="userSpaceOnUse">
<stop stop-color="white"/>
<stop offset="1" stop-color="white"/>
</linearGradient>
<linearGradient id="paint9_linear" x1="1969.32" y1="9446.97" x2="-3167.69" y2="5334" gradientUnits="userSpaceOnUse">
<stop stop-color="white"/>
<stop offset="1" stop-color="#EFEFF4"/>
</linearGradient>
<clipPath id="clip0">
<rect width="83" height="83" fill="white"/>
</clipPath>
</defs>
</svg>
